<?xml version="1.0" encoding="utf-8"?>
<!-- Generator: Adobe Illustrator 24.0.0, SVG Export Plug-In . SVG Version: 6.00 Build 0)  -->
<svg version="1.1" id="arrow_icon" xmlns="http://www.w3.org/2000/svg" xmlns:xlink="http://www.w3.org/1999/xlink" x="0px" y="0px"
	 viewBox="0 0 1024 1024" style="enable-background:new 0 0 1024 1024;" xml:space="preserve">
<style type="text/css">
	.st0{fill:#999999;}
</style>
<path class="st0" d="M162,511.9c0-17.1,5.9-31.5,17.6-43.3l309.5-309.4c12.4-11.7,26.8-17.6,43.3-17.6c16.2,0,30.4,5.9,42.8,17.6
	l35.7,35.6c12.1,12,18.1,26.5,18.1,43.3s-6,31.2-18.1,43.3L471.6,420.7h334.6c16.5,0,29.9,5.9,40.2,17.8
	c10.3,11.9,15.5,26.2,15.5,43v60.9c0,16.8-5.1,31.1-15.5,43c-10.3,11.9-23.7,17.8-40.2,17.8H471.5L610.8,743
	c12.1,11.4,18.1,25.7,18.1,42.8c0,17.1-6,31.4-18.1,42.8l-35.7,35.7c-12,12-26.3,18.1-42.8,18.1c-16.8,0-31.2-6-43.3-18.1
	L179.5,554.8C167.8,543.6,162,529.4,162,511.9L162,511.9z"/>
</svg>
