<?xml version="1.0" encoding="utf-8"?>
<!-- Generator: Adobe Illustrator 24.0.0, SVG Export Plug-In . SVG Version: 6.00 Build 0)  -->
<svg version="1.1" id="图层_1" xmlns="http://www.w3.org/2000/svg" xmlns:xlink="http://www.w3.org/1999/xlink" x="0px" y="0px"
	 viewBox="0 0 200 200" style="enable-background:new 0 0 200 200;" xml:space="preserve">
<style type="text/css">
	.st0{fill:#FFFFFF;}
</style>
<path class="st0" d="M55,30.9c14.3,0,26,11.6,26,26v22.1c0,2.1-1.8,3.9-3.9,3.9H55.3C40.9,82.8,29.1,71.3,29,57
	C28.9,42.6,40.6,30.9,55,30.9 M55,18.2c-21.3,0-38.6,17.2-38.6,38.6c0,21.3,17.7,38.7,38.9,38.7h34.4c2.1,0,3.9-1.8,3.9-3.9V56.9
	C93.6,35.5,76.3,18.2,55,18.2z M145,29.6c14.4,0,26,11.7,26,26.1c-0.1,14.3-11.9,25.8-26.3,25.8H123c-2.1,0-3.9-1.8-3.9-3.9V55.6
	C119.1,41.3,130.7,29.6,145,29.6 M145,17c-21.3,0-38.6,17.3-38.6,38.6v34.7c0,2.1,1.8,3.9,3.9,3.9h34.4c21.3,0,39-17.4,38.9-38.7
	C183.6,34.2,166.3,17,145,17L145,17z M145,120.3c14.4,0,26.1,11.8,26,26.2c-0.1,14.1-11.6,25.6-25.7,25.8
	c-14.4,0.1-26.2-11.6-26.2-26v-22.1c0-2.1,1.8-3.9,3.9-3.9H145 M145,107.6h-34.7c-2.1,0-3.9,1.8-3.9,3.9v34.4
	c0,21.3,17.4,39,38.7,38.9c21.3,0,38.6-17.3,38.6-38.6C183.7,124.9,166.3,107.6,145,107.6L145,107.6z M55,120.3H77
	c2.1,0,3.9,1.8,3.9,3.9v22.1c0,14.4-11.8,26.1-26.2,26c-14.1-0.1-25.6-11.6-25.7-25.8C28.9,132.1,40.6,120.3,55,120.3 M55,107.6
	c-21.3,0-38.6,17.3-38.6,38.6c0,21.3,17.2,38.6,38.6,38.6c21.3,0,38.7-17.7,38.7-38.9v-34.4c0-2.1-1.8-3.9-3.9-3.9L55,107.6
	L55,107.6z"/>
</svg>
