<?xml version="1.0" encoding="utf-8"?>
<!-- Generator: Adobe Illustrator 24.0.0, SVG Export Plug-In . SVG Version: 6.00 Build 0)  -->
<svg version="1.1" id="图层_1" xmlns="http://www.w3.org/2000/svg" xmlns:xlink="http://www.w3.org/1999/xlink" x="0px" y="0px"
	 viewBox="0 0 40 40" style="enable-background:new 0 0 40 40;" xml:space="preserve">
<style type="text/css">
	.st0{fill-rule:evenodd;clip-rule:evenodd;fill:#FFFFFF;}
</style>
<path class="st0" d="M10.3,7.7c1.5,0,2.6,1.2,2.6,2.6S11.8,13,10.3,13s-2.6-1.2-2.6-2.6S8.9,7.7,10.3,7.7z"/>
<path class="st0" d="M20,7.7c1.5,0,2.6,1.2,2.6,2.6S21.5,13,20,13s-2.6-1.2-2.6-2.6S18.5,7.7,20,7.7z"/>
<path class="st0" d="M29.7,7.7c1.5,0,2.6,1.2,2.6,2.6S31.1,13,29.7,13c-1.5,0-2.6-1.2-2.6-2.6S28.2,7.7,29.7,7.7z"/>
<path class="st0" d="M10.3,17.4c1.5,0,2.6,1.2,2.6,2.6s-1.2,2.6-2.6,2.6S7.7,21.5,7.7,20S8.9,17.4,10.3,17.4z"/>
<path class="st0" d="M20,17.4c1.5,0,2.6,1.2,2.6,2.6s-1.2,2.6-2.6,2.6s-2.6-1.2-2.6-2.6S18.5,17.4,20,17.4z"/>
<path class="st0" d="M29.7,17.4c1.5,0,2.6,1.2,2.6,2.6s-1.2,2.6-2.6,2.6c-1.5,0-2.6-1.2-2.6-2.6S28.2,17.4,29.7,17.4z"/>
<path class="st0" d="M10.3,27c1.5,0,2.6,1.2,2.6,2.6c0,1.5-1.2,2.6-2.6,2.6s-2.6-1.2-2.6-2.6C7.7,28.2,8.9,27,10.3,27z"/>
<path class="st0" d="M20,27c1.5,0,2.6,1.2,2.6,2.6c0,1.5-1.2,2.6-2.6,2.6s-2.6-1.2-2.6-2.6C17.4,28.2,18.5,27,20,27z"/>
<path class="st0" d="M29.7,27c1.5,0,2.6,1.2,2.6,2.6c0,1.5-1.2,2.6-2.6,2.6c-1.5,0-2.6-1.2-2.6-2.6C27,28.2,28.2,27,29.7,27z"/>
</svg>
