<?xml version="1.0" encoding="utf-8"?>
<!-- Generator: Adobe Illustrator 24.0.0, SVG Export Plug-In . SVG Version: 6.00 Build 0)  -->
<svg version="1.1" id="图层_1" xmlns="http://www.w3.org/2000/svg" xmlns:xlink="http://www.w3.org/1999/xlink" x="0px" y="0px"
	 viewBox="0 0 610 610" style="enable-background:new 0 0 610 610;" xml:space="preserve">
<style type="text/css">
	.st0{fill:none;}
	.st1{fill-rule:evenodd;clip-rule:evenodd;fill:#FFFFFF;}
	.st2{opacity:0.302;fill-rule:evenodd;clip-rule:evenodd;fill:#FFFFFF;enable-background:new    ;}
</style>
<path class="st0" d="M0,0h610v610H0V0z"/>
<path class="st1" d="M59,30h185c16.6,0,30,13.4,30,30v185c0,16.6-13.4,30-30,30H59c-16.6,0-30-13.4-30-30V60C29,43.4,42.4,30,59,30z
	"/>
<path class="st1" d="M59,335h185c16.6,0,30,13.4,30,30v185c0,16.6-13.4,30-30,30H59c-16.6,0-30-13.4-30-30V365
	C29,348.4,42.4,335,59,335z"/>
<path class="st1" d="M365,258h185c16.6,0,30,13.4,30,30v185c0,16.6-13.4,30-30,30H365c-16.6,0-30-13.4-30-30V288
	C335,271.4,348.4,258,365,258z"/>
<path class="st2" d="M365,184h185c16.6,0,30,13.4,30,30v185c0,16.6-13.4,30-30,30H365c-16.6,0-30-13.4-30-30V214
	C335,197.4,348.4,184,365,184z"/>
<path class="st2" d="M365,108h185c16.6,0,30,13.4,30,30v185c0,16.6-13.4,30-30,30H365c-16.6,0-30-13.4-30-30V138
	C335,121.4,348.4,108,365,108z"/>
</svg>
