<?xml version="1.0" encoding="utf-8"?>
<!-- Generator: Adobe Illustrator 24.0.0, SVG Export Plug-In . SVG Version: 6.00 Build 0)  -->
<svg version="1.1" id="图层_1" xmlns="http://www.w3.org/2000/svg" xmlns:xlink="http://www.w3.org/1999/xlink" x="0px" y="0px"
	 viewBox="0 0 200 200" style="enable-background:new 0 0 200 200;" xml:space="preserve">
<style type="text/css">
	.st0{fill:#FFFFFF;}
</style>
<path class="st0" d="M117,166.9H83.1c-13.2,0-25.4-7.1-32-18.5l-17-29.4c-6.6-11.4-6.6-25.6,0-37l17-29.4
	c6.6-11.4,18.9-18.5,32-18.5h33.9c13.2,0,25.4,7.1,32,18.5l17,29.4c6.6,11.4,6.6,25.6,0,37l-17,29.4
	C142.4,159.8,130.1,166.9,117,166.9L117,166.9z M61.2,142.5c4.5,7.8,12.9,12.6,21.9,12.6h33.9c9,0,17.4-4.8,21.9-12.6l17-29.4
	c4.5-7.8,4.5-17.5,0-25.3l-17-29.4c-4.5-7.8-12.9-12.6-21.9-12.6H83.1c-9,0-17.4,4.8-21.9,12.6l-17,29.4c-4.5,7.8-4.5,17.5,0,25.3
	L61.2,142.5L61.2,142.5z"/>
<path class="st0" d="M100,130.6c-16.6,0-30.1-13.5-30.1-30.1S83.4,70.4,100,70.4s30.1,13.5,30.1,30.1S116.6,130.6,100,130.6z
	 M100,82.1c-10.1,0-18.4,8.2-18.4,18.4s8.2,18.4,18.4,18.4s18.4-8.2,18.4-18.4S110.1,82.1,100,82.1z"/>
</svg>
