<?xml version="1.0" encoding="utf-8"?>
<!-- Generator: Adobe Illustrator 24.0.0, SVG Export Plug-In . SVG Version: 6.00 Build 0)  -->
<svg version="1.1" id="图层_1" xmlns="http://www.w3.org/2000/svg" xmlns:xlink="http://www.w3.org/1999/xlink" x="0px" y="0px"
	 viewBox="0 0 200 200" style="enable-background:new 0 0 200 200;" xml:space="preserve">
<style type="text/css">
	.st0{fill:#FFFFFF;}
</style>
<path class="st0" d="M100.2,33.2C62.5,33.2,32,63.7,32,101.5s30.5,68.2,68.2,68.2s68.2-30.5,68.2-68.2S138,33.2,100.2,33.2z
	 M100.2,158.3c-31.3,0-56.9-25.5-56.9-56.9s25.5-56.9,56.9-56.9s56.9,25.5,56.9,56.9S131.6,158.3,100.2,158.3L100.2,158.3z
	 M100.2,62.7c-12.6,0-22.7,10.1-22.7,22.7l0,0c0,3.1,2.6,5.7,5.7,5.7s5.7-2.6,5.7-5.7c0-6.2,5.2-11.4,11.4-11.4
	c6.3,0,11.4,5.2,11.4,11.4c0,6.3-5.1,11.4-11.4,11.4c-3.1,0-5.7,2.6-5.7,5.7v14.9c0,3.1,2.6,5.7,5.7,5.7s5.7-2.6,5.7-5.7l0,0v-9.8
	c12.1-3.2,19.4-15.6,16.3-27.8C119.6,69.7,110.6,62.7,100.2,62.7z M94.6,135c0,3.1,2.6,5.7,5.7,5.7s5.7-2.6,5.7-5.7
	c0-3.1-2.6-5.7-5.7-5.7C97.1,129.3,94.6,131.8,94.6,135L94.6,135z"/>
</svg>
